<svg width="215" height="70" viewBox="0 0 215 70" fill="none" xmlns="http://www.w3.org/2000/svg">
<g clip-path="url(#clip0_4197_1981)">
<path d="M22.0588 31.3235H33.0882V17.5H44.1176V28.5294H55.1471V6.47058H0V28.5294H11.0294V17.5H22.0588V31.3235Z" fill="#E5E1E6"/>
<path d="M55.1471 54.1176V31.3235H22.0588V47.647L33.0882 41.3235H44.1176V47.647L27.6471 57.2058L11.0294 47.647V31.3235H0V54.1176L27.6471 70L55.1471 54.1176Z" fill="#3CB4E5"/>
<path d="M86.1758 54.2647C83.9699 55.4412 81.1758 56.0294 77.9405 56.0294C74.264 56.0294 71.4699 55 69.4111 53.0882C67.2052 51.1765 66.1758 48.5294 66.1758 45.1471C66.1758 41.7647 67.3523 38.9706 69.5581 36.7647C71.9111 34.5588 74.8523 33.5294 78.6758 33.5294C81.0287 33.5294 83.2346 33.8235 84.9993 34.4118V38.9706C83.2346 37.9412 81.1758 37.5 78.6758 37.5C76.617 37.5 74.8523 38.0882 73.5287 39.4118C72.2052 40.7353 71.4699 42.5 71.4699 44.7059C71.4699 46.9118 72.0581 48.6765 73.2346 49.853C74.4111 51.0294 76.0287 51.6177 78.0875 51.6177C79.264 51.6177 80.2934 51.4706 81.0287 51.1765V46.9118H76.4699V42.9412H86.0287V54.2647H86.1758Z" fill="#E5E1E6"/>
<path d="M110.294 56.0294H104.706L103.088 51.1765H95.0002L93.3826 56.0294H87.9414L96.1767 33.9706H102.206L110.294 56.0294ZM99.2649 37.7941C99.2649 38.3823 96.3238 47.3529 96.3238 47.3529H102.059L99.2649 37.7941Z" fill="#E5E1E6"/>
<path d="M125.734 56.0294H112.352V33.9706H117.499V51.9118H125.881V56.0294H125.734Z" fill="#E5E1E6"/>
<path d="M149.999 56.0294H144.411L142.794 51.1765H134.705L133.088 56.0294H127.646L135.882 33.9706H141.911L149.999 56.0294ZM138.823 37.7941C138.823 38.3823 135.882 47.3529 135.882 47.3529H141.617L138.823 37.7941Z" fill="#E5E1E6"/>
<path d="M84.117 10.4412H77.6464V28.2353H72.4993V10.4412H66.1758V6.47058H84.117V10.4412Z" fill="#E5E1E6"/>
<path d="M105.588 18.6765C105.588 25.1471 102.5 28.3823 96.1762 28.3823C89.9998 28.3823 87.0586 25.2941 87.0586 18.9706V6.47058H92.2057V18.9706C92.2057 22.5 93.6762 24.1176 96.4704 24.1176C99.2645 24.1176 100.735 22.5 100.735 19.1176V6.47058H105.882V18.6765H105.588Z" fill="#E5E1E6"/>
<path d="M127.205 28.2353H121.323L117.793 22.6471C117.499 22.2059 117.352 21.9118 117.058 21.4706C116.764 21.1765 116.617 20.8823 116.323 20.5882C116.028 20.2941 115.881 20.1471 115.587 20C115.293 19.8529 114.999 19.8529 114.705 19.8529H113.381V28.2353H108.234V6.47058H116.323C121.764 6.47058 124.558 8.38234 124.558 12.3529C124.558 13.0882 124.411 13.8235 124.264 14.4118C123.97 15 123.676 15.5882 123.234 16.1765C122.793 16.7647 122.205 17.2059 121.617 17.5C121.028 17.9412 120.293 18.2353 119.558 18.3823C119.852 18.5294 120.146 18.6765 120.587 18.8235C120.881 19.1176 121.176 19.2647 121.47 19.5588C121.764 19.8529 122.058 20.1471 122.352 20.5882C122.646 20.8823 122.793 21.3235 123.087 21.6176L127.205 28.2353ZM113.381 10.1471V16.1765H115.587C116.617 16.1765 117.499 15.8823 118.234 15.2941C118.97 14.7059 119.264 13.9706 119.264 12.9412C119.264 11.0294 118.087 10.1471 115.734 10.1471H113.381Z" fill="#E5E1E6"/>
<path d="M129.41 6.47058H134.557V16.7647L141.763 6.47058H148.234L139.851 16.9118L148.234 28.2353H141.763L134.557 17.6471V28.2353H129.41V6.47058Z" fill="#E5E1E6"/>
<path d="M163.236 22.2059L168.824 6.47058H176.03V28.2353H171.03V13.8235L165.147 28.3823H161.03L155 13.8235V28.3823H150.441V6.47058H156.912L163.236 22.2059Z" fill="#E5E1E6"/>
<path d="M192.352 28.2353H178.822V6.47058H191.763V10.4412H183.822V15.2941H191.175V19.2647H183.822V24.2647H192.205V28.2353H192.352Z" fill="#E5E1E6"/>
<path d="M194.705 6.47058H200.146L210.293 21.4706L210.146 6.47058H214.999V28.2353H209.264L199.117 13.6765L199.411 28.2353H194.705V6.47058Z" fill="#E5E1E6"/>
<path d="M92.3529 4.41177C93.6524 4.41177 94.7059 3.42416 94.7059 2.20588C94.7059 0.987607 93.6524 0 92.3529 0C91.0534 0 90 0.987607 90 2.20588C90 3.42416 91.0534 4.41177 92.3529 4.41177Z" fill="#E5E1E6"/>
<path d="M99.9994 4.41177C101.299 4.41177 102.352 3.42416 102.352 2.20588C102.352 0.987607 101.299 0 99.9994 0C98.6999 0 97.6465 0.987607 97.6465 2.20588C97.6465 3.42416 98.6999 4.41177 99.9994 4.41177Z" fill="#E5E1E6"/>
</g>
<defs>
<clipPath id="clip0_4197_1981">
<rect width="215" height="70" fill="white"/>
</clipPath>
</defs>
</svg>
