<svg width="24" height="24" viewBox="0 0 56 57" fill="none" xmlns="http://www.w3.org/2000/svg"><path d="M45.1657 24.2492H21.7284V30.187H45.1657V24.2492Z" fill="#3CB4E5"></path><path d="M27.1378 34.5501H21.7284V37.2887H27.1378V34.5501Z" fill="#3CB4E5"></path><path d="M45.1658 34.5501H39.7573V37.2887H45.1658V34.5501Z" fill="#3CB4E5"></path><path d="M36.1521 34.5501H30.7428V37.2887H36.1521V34.5501Z" fill="#3CB4E5"></path><path d="M27.1378 40.2294H21.7284V42.9681H27.1378V40.2294Z" fill="#3CB4E5"></path><path d="M45.1658 40.2294H39.7573V42.9681H45.1658V40.2294Z" fill="#3CB4E5"></path><path d="M36.1521 40.2294H30.7428V42.9681H36.1521V40.2294Z" fill="#3CB4E5"></path><path d="M27.1378 45.9073H21.7284V48.6475H27.1378V45.9073Z" fill="#3CB4E5"></path><path d="M45.1658 45.9073H39.7573V48.6475H45.1658V45.9073Z" fill="#3CB4E5"></path><path d="M36.1521 45.9073H30.7428V48.6475H36.1521V45.9073Z" fill="#3CB4E5"></path><path d="M46.1366 11.0184H45.411V0H21.4998V11.0184H8.53475C3.82868 11.0184 0 14.8471 0 19.5531V48.4653C0 53.1712 3.82868 57 8.53475 57H46.1365C51.5185 57 55.8973 52.6212 55.8973 47.2392V20.7798C55.8974 15.3971 51.5187 11.0184 46.1366 11.0184ZM24.0445 2.54474H42.8661V17.8134H24.0445V2.54474ZM14.4105 52.7587H8.53475C6.16312 52.7587 4.24127 50.8378 4.24127 48.4653V19.5531C4.24127 17.1806 6.16312 15.2596 8.53475 15.2596H14.4104L14.4105 52.7587ZM51.6561 47.2392C51.6561 50.2876 49.1859 52.7586 46.1366 52.7586H16.9353V15.2596H21.4998V20.3582H45.411V15.2596H46.1366C49.1859 15.2596 51.6561 17.7299 51.6561 20.78V47.2392Z" fill="#3CB4E5"></path><path d="M40.1466 5.72583H27.0134V7.42236H40.1466V5.72583Z" fill="#3CB4E5"></path><path d="M34.8449 10.3911H27.0134V12.0877H34.8449V10.3911Z" fill="#3CB4E5"></path></svg>