<svg width="52" height="28" viewBox="0 0 52 28" fill="none" xmlns="http://www.w3.org/2000/svg">
<g clip-path="url(#clip0_4197_3273)">
<path d="M42.2556 24.6769C40.8727 23.6775 38.7453 24.2106 37.4197 22.4283C37.4197 22.4283 36.9288 21.862 38.0334 20.4878C39.138 19.1136 39.228 16.9149 38.9498 15.2242C38.7732 14.4208 38.3329 13.7025 37.7015 13.1878C37.0701 12.673 36.2853 12.3926 35.4764 12.3926C34.6674 12.3926 33.8826 12.673 33.2512 13.1878C32.6198 13.7025 32.1795 14.4208 32.0029 15.2242C31.7247 16.8899 31.8229 19.1053 32.9275 20.4794C33.3201 20.888 33.5751 21.413 33.6557 21.9785C34.1932 22.1464 34.7013 22.3993 35.1613 22.7281C37.2479 24.2355 37.1415 27.1421 37.0679 27.9583H43.3029C43.3029 27.9583 43.6384 25.6763 42.2556 24.6769Z" fill="#3CB4E5"/>
<path d="M16.7904 22.7531C17.2643 22.4186 17.7859 22.1602 18.3369 21.9869C18.4191 21.4284 18.6709 20.91 19.057 20.5045C20.1616 19.1303 20.2517 16.9316 19.9734 15.2409C19.7899 14.4435 19.3468 13.7327 18.7162 13.2239C18.0857 12.7151 17.3046 12.4382 16.5 12.4382C15.6953 12.4382 14.9143 12.7151 14.2837 13.2239C13.6531 13.7327 13.2101 14.4435 13.0265 15.2409C12.7483 16.9066 12.8465 19.1219 13.9511 20.5045C15.0557 21.887 14.573 22.445 14.573 22.445C13.2474 24.2272 11.1281 23.6942 9.74528 24.702C8.36243 25.7097 8.69792 27.9917 8.69792 27.9917H14.9003C14.8184 27.1755 14.7284 24.2606 16.7904 22.7531Z" fill="#3CB4E5"/>
<path d="M34.3667 23.9107C33.8683 23.5767 33.3134 23.3395 32.7302 23.2111C31.2328 22.8197 29.539 22.7114 28.3607 21.129C28.3607 21.129 27.7552 20.4294 29.1217 18.7221C30.4882 17.0148 30.5945 14.3081 30.2509 12.2176C30.0253 11.2301 29.478 10.3494 28.6979 9.71886C27.9179 9.08832 26.9511 8.74512 25.955 8.74512C24.9589 8.74512 23.9922 9.08832 23.2121 9.71886C22.4321 10.3494 21.8848 11.2301 21.6592 12.2176C21.3155 14.3081 21.4383 17.0231 22.8048 18.7221C24.1712 20.4211 23.5657 21.1207 23.5657 21.1207C22.4038 22.7031 20.7264 22.7863 19.2372 23.2111C18.6523 23.3387 18.0968 23.5789 17.6007 23.919C15.8987 25.1599 16.3651 27.9916 16.3651 27.9916H35.6432C35.6432 27.9916 36.0523 25.1433 34.3667 23.9107Z" fill="#3CB4E5"/>
<path d="M25.9789 7.27908C25.8195 7.27304 25.668 7.20641 25.5544 7.09233C25.4408 6.97825 25.3733 6.825 25.3652 6.66278V0.641363C25.383 0.482813 25.4574 0.33645 25.5744 0.230184C25.6913 0.123919 25.8426 0.0651855 25.9994 0.0651855C26.1562 0.0651855 26.3075 0.123919 26.4244 0.230184C26.5414 0.33645 26.6158 0.482813 26.6335 0.641363V6.66278C26.6304 6.74701 26.6109 6.82979 26.5763 6.90637C26.5417 6.98295 26.4926 7.05183 26.4318 7.10907C26.371 7.16631 26.2997 7.21079 26.222 7.23996C26.1443 7.26913 26.0617 7.28242 25.9789 7.27908Z" fill="#3CB4E5"/>
<path d="M18.5258 8.79477C18.4009 8.79422 18.2791 8.75593 18.1756 8.68476C18.0722 8.61358 17.9919 8.51273 17.9448 8.395L15.6865 2.86496C15.6242 2.70807 15.6254 2.5325 15.6898 2.37651C15.7542 2.22051 15.8765 2.09672 16.0301 2.03213C16.1063 1.99961 16.1881 1.98288 16.2708 1.98291C16.3534 1.98294 16.4352 1.99973 16.5114 2.03229C16.5875 2.06486 16.6566 2.11255 16.7144 2.17258C16.7723 2.23261 16.8178 2.30377 16.8484 2.38192L19.1068 7.91196C19.1389 7.98901 19.1558 8.07178 19.1563 8.1555C19.1568 8.23921 19.141 8.3222 19.1098 8.39966C19.0786 8.47711 19.0326 8.5475 18.9745 8.60675C18.9164 8.66599 18.8473 8.71291 18.7713 8.7448C18.6934 8.77737 18.61 8.79434 18.5258 8.79477Z" fill="#3CB4E5"/>
<path d="M12.2093 13.1004C12.0431 13.0976 11.8846 13.0289 11.7674 12.9089L7.60251 8.67808C7.54288 8.61909 7.49548 8.54852 7.46311 8.47056C7.43074 8.3926 7.41406 8.30882 7.41406 8.22418C7.41406 8.13954 7.43074 8.05576 7.46311 7.9778C7.49548 7.89984 7.54288 7.82927 7.60251 7.77028C7.7221 7.64924 7.8839 7.5813 8.05255 7.5813C8.2212 7.5813 8.383 7.64924 8.50259 7.77028L12.6675 12.0011C12.7261 12.0607 12.7727 12.1314 12.8044 12.2093C12.8361 12.2872 12.8525 12.3707 12.8525 12.455C12.8525 12.5393 12.8361 12.6228 12.8044 12.7007C12.7727 12.7786 12.7261 12.8493 12.6675 12.9089C12.6075 12.9703 12.5361 13.0189 12.4574 13.0518C12.3787 13.0847 12.2943 13.1012 12.2093 13.1004Z" fill="#3CB4E5"/>
<path d="M7.99453 19.5383C7.91288 19.5386 7.83207 19.5216 7.75723 19.4883L2.31585 17.198C2.23907 17.167 2.16915 17.1206 2.11018 17.0617C2.0512 17.0028 2.00434 16.9325 1.97235 16.855C1.94035 16.7775 1.92386 16.6942 1.92383 16.6101C1.9238 16.526 1.94024 16.4428 1.97218 16.3652C2.03565 16.2088 2.15726 16.0843 2.31053 16.0188C2.4638 15.9533 2.63629 15.952 2.79043 16.0154L8.23182 18.3224C8.37089 18.3759 8.48687 18.4778 8.55926 18.61C8.63165 18.7422 8.65577 18.8961 8.62736 19.0447C8.59896 19.1932 8.51985 19.3268 8.40404 19.4217C8.28823 19.5166 8.14317 19.5668 7.99453 19.5633V19.5383Z" fill="#3CB4E5"/>
<path d="M6.54658 27.1254H0.63061C0.460254 27.1254 0.296875 27.0565 0.176415 26.9339C0.055955 26.8113 -0.0117187 26.645 -0.0117188 26.4716C-0.0117188 26.2983 0.055955 26.132 0.176415 26.0094C0.296875 25.8868 0.460254 25.8179 0.63061 25.8179H6.54658C6.62932 25.8179 6.71125 25.8345 6.78769 25.8667C6.86414 25.8989 6.93359 25.9461 6.9921 26.0057C7.0506 26.0652 7.09701 26.1359 7.12868 26.2137C7.16034 26.2916 7.17664 26.3749 7.17664 26.4592C7.17664 26.5434 7.16034 26.6268 7.12868 26.7046C7.09701 26.7824 7.0506 26.8531 6.9921 26.9126C6.93359 26.9722 6.86414 27.0194 6.78769 27.0516C6.71125 27.0839 6.62932 27.1004 6.54658 27.1004V27.1254Z" fill="#3CB4E5"/>
<path d="M33.4334 8.77809C33.352 8.77681 33.2714 8.75986 33.1961 8.72812C33.0425 8.66353 32.9202 8.53974 32.8558 8.38374C32.7914 8.22775 32.7902 8.05218 32.8525 7.89529L35.1027 2.35692C35.1284 2.27183 35.1713 2.19313 35.2285 2.12582C35.2858 2.05851 35.3562 2.00408 35.4352 1.96598C35.5143 1.92788 35.6003 1.90696 35.6877 1.90453C35.7751 1.90211 35.8621 1.91825 35.9431 1.95191C36.0241 1.98557 36.0973 2.03603 36.158 2.10006C36.2188 2.1641 36.2658 2.24031 36.296 2.32385C36.3263 2.40739 36.3391 2.49642 36.3337 2.58527C36.3283 2.67413 36.3047 2.76087 36.2646 2.83996L34.0226 8.37833C33.9741 8.49672 33.8923 8.59785 33.7875 8.66899C33.6826 8.74013 33.5594 8.77809 33.4334 8.77809Z" fill="#3CB4E5"/>
<path d="M39.7596 13.0671C39.6778 13.0677 39.5966 13.0518 39.5208 13.0204C39.4449 12.9889 39.376 12.9426 39.3178 12.8839C39.2591 12.8243 39.2126 12.7536 39.1809 12.6757C39.1491 12.5978 39.1328 12.5143 39.1328 12.43C39.1328 12.3457 39.1491 12.2622 39.1809 12.1843C39.2126 12.1064 39.2591 12.0357 39.3178 11.9761L43.4745 7.73697C43.5325 7.67628 43.6018 7.62803 43.6784 7.59509C43.755 7.56214 43.8373 7.54517 43.9205 7.54517C44.0036 7.54517 44.0859 7.56214 44.1625 7.59509C44.2391 7.62803 44.3085 7.67628 44.3664 7.73697C44.4853 7.85869 44.5521 8.02338 44.5521 8.19503C44.5521 8.36669 44.4853 8.53138 44.3664 8.6531L40.2097 12.8922C40.0883 13.0089 39.9265 13.0718 39.7596 13.0671Z" fill="#3CB4E5"/>
<path d="M43.9888 19.4968C43.8439 19.4953 43.7039 19.4429 43.5924 19.3486C43.4809 19.2542 43.4049 19.1236 43.377 18.9788C43.3491 18.834 43.3712 18.6839 43.4394 18.5537C43.5076 18.4235 43.6179 18.3212 43.7515 18.2642L49.1847 15.9655C49.2619 15.9277 49.3458 15.9063 49.4314 15.9027C49.517 15.899 49.6024 15.9131 49.6824 15.9442C49.7624 15.9752 49.8354 16.0226 49.8968 16.0833C49.9583 16.144 50.0069 16.2168 50.0398 16.2973C50.0726 16.3778 50.089 16.4643 50.088 16.5515C50.0869 16.6386 50.0684 16.7246 50.0335 16.8043C49.9987 16.8839 49.9482 16.9555 49.8853 17.0146C49.8224 17.0737 49.7483 17.1192 49.6675 17.1482L44.2343 19.4468C44.1564 19.4794 44.073 19.4963 43.9888 19.4968Z" fill="#3CB4E5"/>
<path d="M51.3691 27.0838H45.4777C45.3106 27.0838 45.1504 27.0163 45.0322 26.896C44.914 26.7757 44.8477 26.6126 44.8477 26.4426C44.8477 26.2725 44.914 26.1094 45.0322 25.9891C45.1504 25.8688 45.3106 25.8013 45.4777 25.8013H51.3691C51.5249 25.8193 51.6687 25.8951 51.7731 26.0141C51.8775 26.1332 51.9352 26.2871 51.9352 26.4467C51.9352 26.6063 51.8775 26.7603 51.7731 26.8793C51.6687 26.9984 51.5249 27.0741 51.3691 27.0922V27.0838Z" fill="#3CB4E5"/>
</g>
<defs>
<clipPath id="clip0_4197_3273">
<rect width="52" height="28" fill="white"/>
</clipPath>
</defs>
</svg>
