<svg width="35" height="40" viewBox="0 0 35 40" fill="none" xmlns="http://www.w3.org/2000/svg">
<g id="Artboard 7" clip-path="url(#clip0_4197_3321)">
<path id="Vector" d="M12.5125 28.2897C12.5139 29.9264 12.9766 31.5306 13.8492 32.9243C14.7218 34.3179 15.9701 35.4464 17.4555 36.1843C18.9408 36.9222 20.6051 37.2408 22.2635 37.1045C23.9218 36.9683 25.5093 36.3826 26.8496 35.4125L31.2768 39.4366C31.4917 39.6305 31.7434 39.781 32.0174 39.8792C32.2914 39.9775 32.5825 40.0218 32.8739 40.0094C33.1653 39.9971 33.4514 39.9284 33.7158 39.8074C33.9803 39.6863 34.2179 39.5152 34.4151 39.3038C34.6123 39.0924 34.7652 38.8449 34.8651 38.5754C34.9651 38.3059 35.0101 38.0197 34.9975 37.733C34.985 37.4464 34.9152 37.1651 34.7921 36.905C34.669 36.6449 34.495 36.4112 34.2801 36.2173L29.681 32.0644C30.24 30.8645 30.5191 29.5568 30.498 28.2371C30.4768 26.9174 30.1559 25.6191 29.5587 24.4371C28.9615 23.2552 28.1031 22.2195 27.0465 21.4059C25.9898 20.5923 24.7615 20.0213 23.4515 19.7348C22.1415 19.4483 20.783 19.4535 19.4753 19.75C18.1676 20.0465 16.9438 20.6268 15.8936 21.4484C14.8434 22.2701 13.9932 23.3123 13.4054 24.4988C12.8175 25.6853 12.5069 26.986 12.4961 28.3058L12.5125 28.2897ZM28.0607 28.2897C28.0607 29.5632 27.6768 30.808 26.9574 31.8668C26.2381 32.9257 25.2156 33.7509 24.0194 34.2382C22.8231 34.7256 21.5068 34.8531 20.2369 34.6046C18.967 34.3562 17.8005 33.743 16.8849 32.8425C15.9694 31.9421 15.3458 30.7948 15.0932 29.5458C14.8406 28.2969 14.9703 27.0023 15.4658 25.8258C15.9613 24.6493 16.8004 23.6437 17.877 22.9362C18.9536 22.2287 20.2193 21.8511 21.5141 21.8511C22.3752 21.849 23.2282 22.0139 24.0244 22.3366C24.8206 22.6592 25.5442 23.1331 26.1539 23.7312C26.7635 24.3293 27.2472 25.0398 27.5772 25.822C27.9072 26.6043 28.0771 27.4428 28.0771 28.2897H28.0607Z" fill="#3CB4E5"/>
<path id="Vector_2" d="M6.62109 25.7545H11.6456C11.8254 25.0719 12.0806 24.4107 12.4067 23.7827H6.62109V25.7545Z" fill="#3CB4E5"/>
<path id="Vector_3" d="M11.752 31.2112H6.62109V33.183H12.6113C12.2502 32.5597 11.962 31.8982 11.752 31.2112Z" fill="#3CB4E5"/>
<path id="Vector_4" d="M14.0835 35.171H2.02946V1.99598H28.4943V20.9256C29.3061 21.6701 29.9888 22.54 30.5155 23.501V0H0V37.159H16.7349C15.7473 36.6422 14.8518 35.9707 14.0835 35.171Z" fill="#3CB4E5"/>
<path id="Vector_5" d="M6.62109 29.4567H11.3756C11.3332 29.0691 11.3113 28.6795 11.3101 28.2897C11.3101 28.0161 11.3101 27.7505 11.3101 27.4849H6.62109V29.4567Z" fill="#3CB4E5"/>
<path id="Vector_6" d="M9.54211 13.7466C8.8357 13.6494 8.18888 13.3042 7.7211 12.7746C7.25331 12.245 6.99615 11.5668 6.9971 10.8653C6.99533 10.2443 7.19929 9.63971 7.57812 9.14295L6.03147 7.62183C5.42344 8.32981 5.02575 9.18901 4.88212 10.1049C4.7385 11.0208 4.85452 11.9579 5.21741 12.8132C5.58031 13.6684 6.17602 14.4087 6.93902 14.9525C7.70202 15.4963 8.60275 15.8226 9.54211 15.8955V13.7466Z" fill="#3CB4E5"/>
<path id="Vector_7" d="M7.93687 8.18504C8.51204 7.74385 9.22055 7.50424 9.94997 7.50424C10.6794 7.50424 11.3879 7.74385 11.9631 8.18504L13.6734 6.50295C12.6403 5.62076 11.3181 5.13501 9.94997 5.13501C8.58181 5.13501 7.25964 5.62076 6.22656 6.50295L7.93687 8.18504Z" fill="#3CB4E5"/>
<path id="Vector_8" d="M12.3316 9.14295C12.6334 9.54897 12.8232 10.0249 12.8825 10.5245C12.9418 11.024 12.8686 11.5302 12.6701 11.9936C12.4715 12.4571 12.1543 12.8622 11.7494 13.1694C11.3445 13.4765 10.8656 13.6754 10.3594 13.7466V15.8955C11.3022 15.8293 12.2081 15.5079 12.9767 14.9668C13.7453 14.4257 14.3467 13.686 14.7143 12.8296C15.082 11.9731 15.2015 11.0333 15.0597 10.1142C14.9179 9.19509 14.5203 8.33247 13.9109 7.62183L12.3316 9.14295Z" fill="#3CB4E5"/>
<path id="Vector_9" d="M25.6964 6.08447H17.7422V7.68608H25.6964V6.08447Z" fill="#3CB4E5"/>
<path id="Vector_10" d="M25.6964 10.0684H17.7422V11.67H25.6964V10.0684Z" fill="#3CB4E5"/>
<path id="Vector_11" d="M25.6964 14.0442H17.7422V15.6458H25.6964V14.0442Z" fill="#3CB4E5"/>
<path id="Vector_12" d="M24.6979 25.1831C23.9369 25.9879 23.3068 26.6479 22.6521 27.3803L21.8338 28.2897C21.5392 28.6036 21.2282 28.9256 20.8927 29.2636L20.0089 28.2897L19.1906 27.3803L18.896 27.0503L18.5032 27.3803L17.7994 27.9759L17.3984 28.3139V28.4588L17.7994 28.837L18.716 29.7223L20.8354 31.7586C21.6047 31.0101 22.3084 30.3099 22.9876 29.6338L23.9123 28.7083C24.6079 28.0161 25.3035 27.3159 26.0646 26.5835L24.6979 25.1831Z" fill="#3CB4E5"/>
</g>
<defs>
<clipPath id="clip0_4197_3321">
<rect width="35" height="40" fill="white"/>
</clipPath>
</defs>
</svg>
