<svg width="30" height="40" viewBox="0 0 30 40" fill="none" xmlns="http://www.w3.org/2000/svg">
<g id="Artboard 3" clip-path="url(#clip0_4197_3362)">
<path id="Vector" d="M3.5818 36.6611L1.79415 34.9917L0 36.6611V39.9999H3.5818V36.6611Z" fill="#3CB4E5"/>
<path id="Vector_2" d="M10.1873 31.3454L8.39312 29.676L6.60547 31.3454V40.0001H10.1873V31.3454Z" fill="#3CB4E5"/>
<path id="Vector_3" d="M16.7908 26.2522L15.0356 24.5828L13.209 26.2522V40.0001H16.7908V26.2522Z" fill="#3CB4E5"/>
<path id="Vector_4" d="M23.3963 17.4599L21.6021 15.7905L19.8145 17.4599V40H23.3963V17.4599Z" fill="#3CB4E5"/>
<path id="Vector_5" d="M30.0004 8.27486L28.2063 6.60547L26.4121 8.27486V39.9999H30.0004V8.27486Z" fill="#3CB4E5"/>
<path id="Vector_6" d="M1.79415 28.3862C1.31831 28.3862 0.861962 28.5766 0.525494 28.9155C0.189026 29.2543 0 29.7139 0 30.1931C0 30.6723 0.189026 31.1319 0.525494 31.4708C0.861962 31.8096 1.31831 32 1.79415 32C2.26886 31.9982 2.72354 31.8071 3.0586 31.4684C3.39367 31.1298 3.5818 30.6712 3.5818 30.1931C3.5818 29.715 3.39367 29.2564 3.0586 28.9178C2.72354 28.5791 2.26886 28.388 1.79415 28.3862Z" fill="#3CB4E5"/>
<path id="Vector_7" d="M8.39963 23.0703C8.16378 23.0695 7.93009 23.1156 7.71202 23.2061C7.49396 23.2966 7.29583 23.4297 7.12906 23.5976C6.96229 23.7656 6.83016 23.9651 6.7403 24.1847C6.65044 24.4043 6.60462 24.6397 6.60548 24.8772C6.60548 25.1142 6.65193 25.3488 6.74218 25.5677C6.83242 25.7865 6.96468 25.9853 7.13137 26.1525C7.29805 26.3198 7.49589 26.4523 7.71353 26.5424C7.93117 26.6325 8.16433 26.6784 8.39963 26.6775C8.87374 26.6775 9.32844 26.4878 9.66369 26.1502C9.99894 25.8126 10.1873 25.3547 10.1873 24.8772C10.1881 24.6402 10.1425 24.4054 10.0531 24.1862C9.96362 23.967 9.83208 23.7678 9.66599 23.5999C9.49991 23.4321 9.30255 23.2989 9.08524 23.208C8.86793 23.1171 8.63494 23.0703 8.39963 23.0703Z" fill="#3CB4E5"/>
<path id="Vector_8" d="M14.9967 17.9771C14.522 17.9788 14.0673 18.1699 13.7322 18.5086C13.3972 18.8472 13.209 19.3058 13.209 19.7839C13.2073 20.0218 13.2522 20.2576 13.3412 20.4779C13.4302 20.6982 13.5615 20.8986 13.7276 21.0677C13.8937 21.2368 14.0913 21.3712 14.3091 21.4632C14.5268 21.5552 14.7605 21.603 14.9967 21.6039C15.4725 21.6039 15.9289 21.4135 16.2653 21.0747C16.6018 20.7358 16.7908 20.2762 16.7908 19.797C16.7925 19.5586 16.7474 19.3223 16.658 19.1015C16.5686 18.8808 16.4367 18.6801 16.27 18.5109C16.1032 18.3417 15.9048 18.2075 15.6863 18.1158C15.4678 18.0242 15.2334 17.977 14.9967 17.9771Z" fill="#3CB4E5"/>
<path id="Vector_9" d="M21.6021 9.16533C21.3668 9.16533 21.1338 9.21211 20.9165 9.303C20.6992 9.39388 20.5018 9.52708 20.3358 9.69495C20.1697 9.86282 20.0381 10.0621 19.9487 10.2812C19.8592 10.5004 19.8136 10.7352 19.8145 10.9722C19.8145 11.4497 20.0028 11.9076 20.3381 12.2452C20.6733 12.5829 21.128 12.7725 21.6021 12.7725C22.0751 12.776 22.5302 12.5906 22.8677 12.2568C23.2052 11.9231 23.3976 11.4682 23.4028 10.9918C23.4062 10.7521 23.3621 10.5141 23.273 10.2918C23.1839 10.0695 23.0516 9.86731 22.8839 9.69717C22.7162 9.52704 22.5164 9.39235 22.2963 9.30102C22.0762 9.2097 21.8402 9.16356 21.6021 9.16533Z" fill="#3CB4E5"/>
<path id="Vector_10" d="M28.2056 0C27.9703 -1.56674e-06 27.7373 0.0467813 27.52 0.137665C27.3027 0.228549 27.1054 0.361746 26.9393 0.529616C26.7732 0.697486 26.6416 0.896726 26.5522 1.11591C26.4627 1.33509 26.4171 1.5699 26.418 1.80687C26.418 2.28435 26.6063 2.74227 26.9416 3.0799C27.2768 3.41752 27.7315 3.6072 28.2056 3.6072C28.6803 3.6072 29.1357 3.41774 29.472 3.0803C29.8083 2.74286 29.9981 2.28495 29.9998 1.80687C29.9998 1.32766 29.8108 0.868076 29.4743 0.529221C29.1378 0.190367 28.6815 0 28.2056 0Z" fill="#3CB4E5"/>
<path id="Vector_11" d="M2.04675 30.5205L1.5332 29.8658L8.14425 24.5434L14.7033 19.4894L21.2688 10.743L27.8734 1.55811L28.543 2.0491L21.9319 11.2406L15.2948 20.0851L15.2493 20.1178L8.6513 25.2046L2.04675 30.5205Z" fill="#3CB4E5"/>
</g>
<defs>
<clipPath id="clip0_4197_3362">
<rect width="30" height="40" fill="white"/>
</clipPath>
</defs>
</svg>
