<svg width="31" height="44" viewBox="0 0 31 44" fill="none" xmlns="http://www.w3.org/2000/svg">
<g id="Artboard 8" clip-path="url(#clip0_4197_3291)">
<path id="Vector" d="M11.6064 29.0129L8.40177 30.5152L5.34766 37.9126L12.6962 44L14.9688 33.8615L13.7214 32.0673L11.6064 29.0129Z" fill="#3CB4E5"/>
<path id="Vector_2" d="M19.6866 29.0129L22.8841 30.5152L25.9454 37.9126L18.5969 44L16.3242 33.8615L17.5645 32.0673L19.6866 29.0129Z" fill="#3CB4E5"/>
<path id="Vector_3" d="M31 15.4214L26.6984 12.4382L28.9568 7.7178L23.6586 7.28349L23.2428 2.07184L18.5111 4.30744L15.5215 0L12.5247 4.27184L7.77151 2.05049L7.33418 7.26214L2.08626 7.67508L4.33742 12.4026L0 15.3715L4.30157 18.3476L2.06475 23.068L7.31267 23.4951L7.72849 28.7068L9.68571 27.767L12.4889 26.457L15.4785 30.7288L16.0592 29.8958L18.4753 26.4356L23.2285 28.6783L23.6586 23.5307L28.9066 23.1107L26.6554 18.3832L31 15.4214ZM16.5754 24.8621C14.6903 25.0727 12.7847 24.7234 11.0995 23.8585C9.41427 22.9937 8.02509 21.652 7.10759 20.0032C6.19008 18.3543 5.78545 16.4723 5.94484 14.5952C6.10423 12.718 6.82048 10.9299 8.00306 9.4569C9.18563 7.98392 10.7814 6.89222 12.5887 6.3198C14.3959 5.74738 16.3335 5.71995 18.1565 6.24098C19.9794 6.76201 21.6059 7.8081 22.8303 9.247C24.0547 10.6859 24.8219 12.453 25.0352 14.3249C25.1768 15.5685 25.0703 16.8276 24.7217 18.0303C24.3732 19.233 23.7894 20.3557 23.0038 21.3343C22.2182 22.3128 21.2461 23.1281 20.143 23.7334C19.04 24.3387 17.8277 24.7223 16.5754 24.8621Z" fill="#3CB4E5"/>
<path id="Vector_4" d="M15.2927 20.6899C15.1714 20.837 15.0205 20.9572 14.8496 21.0429C14.6787 21.1285 14.4917 21.1776 14.3005 21.187C14.1093 21.1964 13.9183 21.1659 13.7397 21.0974C13.5611 21.0289 13.399 20.9241 13.2637 20.7895L9.76514 17.3649C9.48341 17.1147 9.31255 16.7642 9.28973 16.3895C9.2669 16.0149 9.39396 15.6464 9.64326 15.3643C9.92368 15.1132 10.2925 14.9821 10.6697 14.9994C11.0469 15.0167 11.4019 15.1811 11.6578 15.4569L13.0917 16.8452C13.2269 16.9797 13.3891 17.0846 13.5676 17.1531C13.7462 17.2215 13.9372 17.252 14.1284 17.2426C14.3196 17.2333 14.5067 17.1842 14.6776 17.0985C14.8485 17.0129 14.9994 16.8927 15.1206 16.7455L19.8523 11.1565C19.9592 11.0015 20.0976 10.8705 20.2585 10.7718C20.4195 10.6732 20.5995 10.6091 20.7869 10.5837C20.9743 10.5582 21.165 10.5721 21.3467 10.6243C21.5284 10.6765 21.6971 10.7659 21.8419 10.8867C21.9867 11.0075 22.1045 11.1572 22.1876 11.3259C22.2706 11.4947 22.3172 11.6789 22.3243 11.8666C22.3314 12.0543 22.2988 12.2414 22.2287 12.4158C22.1585 12.5903 22.0524 12.7482 21.9171 12.8795L15.2927 20.6899Z" fill="#3CB4E5"/>
</g>
<defs>
<clipPath id="clip0_4197_3291">
<rect width="31" height="44" fill="white"/>
</clipPath>
</defs>
</svg>
