<svg width="44" height="42" viewBox="0 0 44 42" fill="none" xmlns="http://www.w3.org/2000/svg">
<g id="Artboard 6" clip-path="url(#clip0_4197_3301)">
<path id="Vector" d="M23.2447 33.7466C20.7188 33.7448 18.2501 32.9957 16.1507 31.594C14.0514 30.1923 12.4156 28.201 11.4502 25.8717C10.4848 23.5424 10.2331 20.9798 10.727 18.5079C11.2209 16.0359 12.4382 13.7655 14.2249 11.9838C16.0116 10.2021 18.2876 8.98902 20.7652 8.49793C23.2427 8.00683 25.8105 8.25978 28.144 9.2248C30.4775 10.1898 32.4719 11.8236 33.875 13.9195C35.2782 16.0155 36.0271 18.4795 36.0271 21.0001C36.0247 24.3815 34.6769 27.6236 32.28 30.0138C29.8831 32.4039 26.6333 33.7466 23.2447 33.7466ZM23.2447 11.0561C21.2738 11.0561 19.3472 11.6393 17.7085 12.7319C16.0697 13.8246 14.7925 15.3777 14.0383 17.1947C13.284 19.0117 13.0867 21.0111 13.4712 22.9401C13.8557 24.8691 14.8048 26.6409 16.1984 28.0316C17.592 29.4223 19.3676 30.3694 21.3007 30.7531C23.2337 31.1368 25.2373 30.9398 27.0582 30.1872C28.879 29.4346 30.4354 28.16 31.5303 26.5247C32.6253 24.8894 33.2097 22.9669 33.2097 21.0001C33.2097 18.3628 32.1599 15.8335 30.2911 13.9686C28.4223 12.1037 25.8876 11.0561 23.2447 11.0561Z" fill="#3CB4E5"/>
<path id="Vector_2" d="M23.246 22.0758C22.9601 22.0758 22.6859 21.9625 22.4837 21.7608C22.2815 21.559 22.168 21.2854 22.168 21.0001C22.168 20.7148 22.2815 20.4411 22.4837 20.2394C22.6859 20.0377 22.9601 19.9243 23.246 19.9243C23.5319 19.9243 23.8061 20.0377 24.0083 20.2394C24.2105 20.4411 24.324 20.7148 24.324 21.0001C24.324 21.2854 24.2105 21.559 24.0083 21.7608C23.8061 21.9625 23.5319 22.0758 23.246 22.0758Z" fill="#3CB4E5"/>
<path id="Vector_3" d="M23.5091 11.7791H23.0924C22.7922 11.7791 22.5488 12.0219 22.5488 12.3215V13.4967C22.5488 13.7962 22.7922 14.0391 23.0924 14.0391H23.5091C23.8093 14.0391 24.0526 13.7962 24.0526 13.4967V12.3215C24.0526 12.0219 23.8093 11.7791 23.5091 11.7791Z" fill="#3CB4E5"/>
<path id="Vector_4" d="M22.1856 22.3831C22.1378 22.3926 22.0885 22.3926 22.0407 22.3831C21.9048 22.3462 21.7881 22.2589 21.7146 22.139L21.5062 21.7684C21.4703 21.7079 21.4468 21.6409 21.4369 21.5713C21.427 21.5017 21.4311 21.4309 21.4487 21.3628C21.4664 21.2948 21.4974 21.2309 21.5399 21.1748C21.5824 21.1188 21.6356 21.0716 21.6965 21.0362L26.679 18.1614C26.7626 18.1164 26.8557 18.0917 26.9507 18.0891C27.0462 18.0891 27.14 18.1141 27.2227 18.1617C27.3054 18.2093 27.3741 18.2778 27.4218 18.3603L27.6302 18.7219C27.7025 18.848 27.722 18.9974 27.6845 19.1378C27.666 19.2061 27.634 19.27 27.5905 19.3259C27.5469 19.3818 27.4927 19.4285 27.4309 19.4632L22.4574 22.3289C22.3736 22.3718 22.2795 22.3906 22.1856 22.3831Z" fill="#3CB4E5"/>
<path id="Vector_5" d="M31.9419 20.2498H30.7642C30.4641 20.2498 30.2207 20.4926 30.2207 20.7922V21.208C30.2207 21.5076 30.4641 21.7504 30.7642 21.7504H31.9419C32.2421 21.7504 32.4855 21.5076 32.4855 21.208V20.7922C32.4855 20.4926 32.2421 20.2498 31.9419 20.2498Z" fill="#3CB4E5"/>
<path id="Vector_6" d="M23.472 27.988H23.0553C22.7551 27.988 22.5117 28.2309 22.5117 28.5304V29.7056C22.5117 30.0052 22.7551 30.248 23.0553 30.248H23.472C23.7722 30.248 24.0155 30.0052 24.0155 29.7056V28.5304C24.0155 28.2309 23.7722 27.988 23.472 27.988Z" fill="#3CB4E5"/>
<path id="Vector_7" d="M15.7271 20.2949H14.5494C14.2492 20.2949 14.0059 20.5378 14.0059 20.8373V21.2532C14.0059 21.5527 14.2492 21.7956 14.5494 21.7956H15.7271C16.0273 21.7956 16.2706 21.5527 16.2706 21.2532V20.8373C16.2706 20.5378 16.0273 20.2949 15.7271 20.2949Z" fill="#3CB4E5"/>
<path id="Vector_8" d="M23.9612 22.9346H23.8253C23.755 22.9177 23.689 22.8865 23.6313 22.843C23.5736 22.7994 23.5256 22.7444 23.4902 22.6815L20.0749 16.7784C20.0056 16.6545 19.9876 16.5085 20.0249 16.3717C20.0621 16.2348 20.1516 16.1179 20.2742 16.0461L20.6456 15.8292C20.7284 15.7821 20.822 15.7571 20.9174 15.7568H21.0533C21.1217 15.7753 21.1858 15.8072 21.2418 15.8507C21.2978 15.8941 21.3446 15.9483 21.3794 16.01L24.7947 21.9131C24.8316 21.9745 24.8558 22.0427 24.8658 22.1136C24.8758 22.1846 24.8713 22.2568 24.8527 22.326C24.8341 22.3951 24.8017 22.4599 24.7575 22.5163C24.7133 22.5727 24.6582 22.6197 24.5954 22.6544L24.233 22.8623C24.1502 22.9094 24.0566 22.9343 23.9612 22.9346Z" fill="#3CB4E5"/>
<path id="Vector_9" d="M5.35392 14.5002L8.06259 19.7254L0 17.158L5.35392 14.5002Z" fill="#3CB4E5"/>
<path id="Vector_10" d="M26.707 38.7003L29.8868 33.7463L31.6895 41.9999L26.707 38.7003Z" fill="#3CB4E5"/>
<path id="Vector_11" d="M37.0329 8.15417L31.1445 7.87393L37.4044 2.18774L37.0329 8.15417Z" fill="#3CB4E5"/>
<path id="Vector_12" d="M38.6998 11.9058C39.9468 14.0798 40.7171 16.4931 40.96 18.9862C41.2028 21.4793 40.9126 23.9955 40.1086 26.3684C39.3045 28.7413 38.0049 30.9169 36.2957 32.7513C34.5865 34.5858 32.5065 36.0373 30.1934 37.01L30.8003 39.9299C33.6254 38.8357 36.1748 37.1351 38.2681 34.9485C40.3615 32.7619 41.9474 30.1428 42.9138 27.2766C43.8801 24.4105 44.2032 21.3674 43.8601 18.3628C43.517 15.3582 42.5161 12.4656 40.9284 9.88989L38.6998 11.9058Z" fill="#3CB4E5"/>
<path id="Vector_13" d="M7.74619 12.0412C9.74967 8.47244 12.9255 5.70254 16.7378 4.19894C20.5501 2.69534 24.7655 2.55009 28.6727 3.78769C30.6155 4.40383 32.4362 5.35207 34.0538 6.5901L36.237 4.58322C33.8518 2.66389 31.0693 1.29715 28.0903 0.581714C25.1113 -0.133722 22.0102 -0.179991 19.0111 0.446246C16.012 1.07248 13.1897 2.3556 10.7481 4.2029C8.30649 6.05021 6.30649 8.41559 4.89258 11.1282L7.74619 12.0412Z" fill="#3CB4E5"/>
<path id="Vector_14" d="M23.2729 38.4201C21.428 38.4269 19.5937 38.1431 17.8374 37.5794C13.9406 36.3263 10.5958 33.7712 8.36644 30.3445C6.13711 26.9178 5.15959 22.829 5.5986 18.767L2.71781 17.854C2.30372 20.8343 2.54647 23.8688 3.42913 26.7458C4.31179 29.6227 5.81307 32.2728 7.82817 34.5109C9.84327 36.749 12.3236 38.5212 15.096 39.7039C17.8685 40.8865 20.8662 41.4511 23.8798 41.3581L23.2729 38.4201Z" fill="#3CB4E5"/>
</g>
<defs>
<clipPath id="clip0_4197_3301">
<rect width="44" height="42" fill="white"/>
</clipPath>
</defs>
</svg>
