<svg width="41" height="32" viewBox="0 0 41 32" fill="none" xmlns="http://www.w3.org/2000/svg">
<g id="Artboard 4" clip-path="url(#clip0_4197_3379)">
<path id="Vector" d="M40.9459 14.9981L33.5141 3.08008L26.3379 14.9921C26.6865 16.6724 27.6072 18.1817 28.9449 19.2654C30.2825 20.349 31.9551 20.9408 33.6806 20.9408C35.406 20.9408 37.0786 20.349 38.4162 19.2654C39.7539 18.1817 40.6746 16.6724 41.0232 14.9921L40.9459 14.9981ZM28.3058 14.9981L33.5438 6.30195L38.9899 14.9981H28.3058Z" fill="#3CB4E5"/>
<path id="Vector_2" d="M14.6615 20.691L7.4913 8.79077L0.0356729 20.691H0C0.345745 22.3744 1.2657 23.8874 2.60422 24.974C3.94275 26.0606 5.61767 26.6541 7.34563 26.6541C9.0736 26.6541 10.7485 26.0606 12.087 24.974C13.4256 23.8874 14.3455 22.3744 14.6913 20.691H14.6615ZM2.01552 20.691L7.46157 11.9949L12.6995 20.691H2.01552Z" fill="#3CB4E5"/>
<path id="Vector_3" d="M35.5093 -0.00369102L4.51953 7.09888L4.9709 9.04597L35.9607 1.94341L35.5093 -0.00369102Z" fill="#3CB4E5"/>
<path id="Vector_4" d="M23.0924 4.52253C23.0924 5.08274 22.9256 5.63042 22.6131 6.09653C22.3005 6.56265 21.8562 6.92635 21.3361 7.1418C20.816 7.35725 20.2435 7.41481 19.6905 7.30722C19.1376 7.19963 18.6291 6.93172 18.229 6.53723C17.829 6.14275 17.5553 5.63935 17.4425 5.09047C17.3297 4.54159 17.3829 3.9718 17.5952 3.4529C17.8076 2.934 18.1697 2.48921 18.6358 2.17459C19.102 1.85996 19.6514 1.68958 20.2148 1.68491C20.5916 1.68179 20.9652 1.75288 21.3142 1.89409C21.6632 2.03529 21.9806 2.24382 22.2482 2.50762C22.5157 2.77143 22.728 3.0853 22.8729 3.43113C23.0178 3.77695 23.0924 4.14789 23.0924 4.52253Z" fill="#3CB4E5"/>
<path id="Vector_5" d="M21.2439 4.52246H19.2344V30.5044H21.2439V4.52246Z" fill="#3CB4E5"/>
<path id="Vector_6" d="M28.3059 29.0205H12.1758V32H28.3059V29.0205Z" fill="#3CB4E5"/>
</g>
<defs>
<clipPath id="clip0_4197_3379">
<rect width="41" height="32" fill="white"/>
</clipPath>
</defs>
</svg>
