<svg width="47" height="45" viewBox="0 0 47 45" fill="none" xmlns="http://www.w3.org/2000/svg">
<g id="Artboard 5" clip-path="url(#clip0_4197_3339)">
<path id="Vector" d="M23.3981 38.0195H18.6471L17.2284 36.9313V34.5033C16.136 33.7469 15.1454 32.8485 14.2818 31.8309C12.3709 29.6784 11.2838 26.8989 11.2188 23.9991C11.2141 22.3967 11.5245 20.8095 12.1318 19.331C12.739 17.8525 13.6308 16.5125 14.7547 15.3899C17.0643 13.0957 20.1704 11.8215 23.3981 11.8441H23.4563C26.6829 11.8195 29.7889 13.091 32.0996 15.3825C34.2738 17.5188 35.5399 20.4361 35.6269 23.5102C35.7139 26.5842 34.615 29.5708 32.5652 31.8309C31.7161 32.8556 30.7375 33.7617 29.655 34.5255V36.9535L28.1999 38.0417L23.3981 38.0195ZM19.2001 36.4575H27.647L28.6583 35.7173V33.4965L28.7601 33.4299C29.7687 32.7407 30.6794 31.9137 31.4666 30.9722C33.14 29.0856 34.0926 26.6507 34.1513 24.1101C34.1584 22.6857 33.8852 21.2743 33.3479 19.959C32.8105 18.6437 32.0199 17.4511 31.0225 16.4515C30.0251 15.4519 28.8412 14.6655 27.5405 14.1387C26.2399 13.6118 24.8487 13.3552 23.449 13.3838H23.3981C22.0033 13.3553 20.6169 13.6101 19.3201 14.1332C18.0232 14.6564 16.842 15.4375 15.8454 16.4308C14.8488 17.4241 14.057 18.6096 13.5161 19.918C12.9753 21.2264 12.6964 22.6315 12.6957 24.0509C12.7559 26.6006 13.7137 29.0435 15.395 30.9352C16.1793 31.8699 17.085 32.6917 18.0869 33.3781L18.1888 33.4447V35.6655L19.2001 36.4575Z" fill="#3CB4E5"/>
<path id="Vector_2" d="M18.793 37.8564V39.2481L27.9383 38.5523V37.8564H18.793Z" fill="#3CB4E5"/>
<path id="Vector_3" d="M18.793 40.07V41.3358L27.9383 40.64V39.4111L18.793 40.07Z" fill="#3CB4E5"/>
<path id="Vector_4" d="M18.793 42.1574V43.4232L27.9383 42.7274V41.4985L18.793 42.1574Z" fill="#3CB4E5"/>
<path id="Vector_5" d="M23.2518 43.9709H23.23H20.3125L21.4038 44.9999H23.23H23.2518H25.0707L26.1693 43.9709H23.2518Z" fill="#3CB4E5"/>
<path id="Vector_6" d="M26.9196 24.0287L28.2292 23.9621C28.2369 23.3172 28.1157 22.6775 27.8727 22.0818L26.6285 22.5112L26.3157 22.03L26.0028 21.5488L26.8832 20.5569C26.4418 20.0927 25.912 19.725 25.3262 19.4761L24.7369 20.6827L24.184 20.5643L23.631 20.4459L23.5583 19.1134C22.9245 19.1055 22.2957 19.2289 21.7103 19.4761L22.125 20.7271L21.6521 21.0455L21.1792 21.3638L20.2042 20.4681C19.748 20.9172 19.3866 21.4562 19.142 22.0522L20.3279 22.6444L20.2115 23.207L20.0951 23.777L18.7855 23.8436C18.7777 24.4885 18.899 25.1282 19.142 25.7239L20.3716 25.3093L20.6844 25.7905L20.9973 26.2716L20.1169 27.2636C20.5583 27.7277 21.0881 28.0955 21.6739 28.3444L22.2559 27.1377L22.8089 27.2562L23.3691 27.3746L23.4346 28.7071C24.0684 28.715 24.6971 28.5916 25.2826 28.3444L24.8606 27.0785L25.3335 26.7602L25.8064 26.4419L26.7813 27.3376C27.2375 26.8885 27.599 26.3495 27.8436 25.7535L26.6722 25.1687L26.7886 24.6061L26.9196 24.0287ZM23.9366 26.1162C23.5141 26.1945 23.0783 26.1442 22.6837 25.9717C22.2892 25.7992 21.9534 25.5121 21.7184 25.1464C21.4835 24.7806 21.3598 24.3525 21.3628 23.9155C21.3659 23.4786 21.4956 23.0523 21.7356 22.69C21.9757 22.3277 22.3155 22.0455 22.7124 21.8787C23.1094 21.712 23.5458 21.668 23.9672 21.7525C24.3885 21.8369 24.7761 22.0459 25.0812 22.3534C25.3864 22.6608 25.5956 23.053 25.6827 23.4809C25.7416 23.7719 25.7425 24.072 25.6854 24.3634C25.6282 24.6548 25.5142 24.9316 25.35 25.1773C25.1858 25.423 24.9749 25.6328 24.7296 25.794C24.4843 25.9553 24.2097 26.0649 23.922 26.1162H23.9366Z" fill="#3CB4E5"/>
<path id="Vector_7" d="M30.1277 21.1269L29.6693 19.9869L30.8261 19.106C30.1569 18.0545 29.2767 17.159 28.2433 16.4781L27.3775 17.6477L26.2571 17.1739L25.1367 16.7002L25.3404 15.2197C24.7357 15.0854 24.1185 15.0184 23.4997 15.0198C22.8909 15.0195 22.2837 15.084 21.6881 15.2123L21.8845 16.6928L20.7641 17.1665L19.6436 17.6329L18.7778 16.4633C17.7432 17.1396 16.8626 18.033 16.195 19.0838L17.3446 19.9869L16.8789 21.1195L16.4133 22.2595L14.9582 22.0522C14.8262 22.6674 14.7603 23.2954 14.7617 23.925C14.7615 24.5445 14.8249 25.1623 14.9509 25.7683L16.406 25.5684L16.8716 26.7084L17.33 27.8484L16.1805 28.7293C16.8468 29.7827 17.7245 30.6807 18.756 31.3646L19.6436 30.1728L20.7568 30.6465L21.8772 31.1203L21.6735 32.6008C22.2781 32.7351 22.8953 32.8021 23.5142 32.8007C24.1194 32.7878 24.7217 32.7109 25.3113 32.5712L25.1148 31.0907L26.2353 30.6169L27.3557 30.1506L28.2215 31.3276C29.2552 30.6446 30.1374 29.7495 30.8116 28.6997L29.6548 27.8188L30.1204 26.6788L30.5569 25.5758L32.0121 25.7831C32.144 25.1679 32.2099 24.5399 32.2085 23.9102C32.2064 23.2905 32.1405 22.6728 32.0121 22.067L30.5569 22.2669L30.1277 21.1269ZM23.4997 29.4029C22.432 29.4029 21.3882 29.0808 20.5004 28.4772C19.6127 27.8737 18.9207 27.0159 18.5121 26.0122C18.1036 25.0085 17.9966 23.9041 18.2049 22.8387C18.4132 21.7732 18.9274 20.7945 19.6824 20.0263C20.4374 19.2582 21.3993 18.735 22.4465 18.5231C23.4937 18.3112 24.5791 18.4199 25.5656 18.8357C26.552 19.2514 27.3951 19.9554 27.9883 20.8587C28.5815 21.7619 28.8981 22.8239 28.8981 23.9102C28.9 24.6321 28.7617 25.3472 28.4911 26.0145C28.2205 26.6818 27.8229 27.2881 27.3212 27.7985C26.8196 28.3089 26.2237 28.7135 25.5678 28.9888C24.912 29.2641 24.2091 29.4049 23.4997 29.4029Z" fill="#3CB4E5"/>
<path id="Vector_8" d="M23.6737 24.8059C23.4999 24.8363 23.3211 24.8138 23.1598 24.7412C22.9984 24.6686 22.8618 24.5491 22.7671 24.3977C22.6723 24.2464 22.6236 24.0699 22.6271 23.8904C22.6306 23.711 22.6862 23.5366 22.7868 23.3892C22.8874 23.2418 23.0286 23.1279 23.1926 23.0619C23.3566 22.9959 23.5362 22.9806 23.7087 23.0181C23.8812 23.0556 24.039 23.1441 24.1622 23.2725C24.2854 23.4009 24.3686 23.5635 24.4013 23.7399C24.4436 23.9794 24.3908 24.2262 24.2544 24.4261C24.1179 24.626 23.9091 24.7626 23.6737 24.8059Z" fill="#3CB4E5"/>
<path id="Vector_9" d="M24.3731 9.9416H22.627V8.52032H24.3731V9.9416ZM24.3731 7.09903H22.627V5.67774H24.3731V7.09903ZM24.3731 4.25646H22.627V2.84257H24.3731V4.25646ZM24.3731 1.42129H22.627V0H24.3731V1.42129Z" fill="#3CB4E5"/>
<path id="Vector_10" d="M15.8831 12.2513L15.1556 11.0225L16.6616 10.1342L17.3891 11.363L15.8831 12.2513ZM14.4862 9.79364L13.7587 8.56482L15.2792 7.67651L16.0068 8.88313L14.4862 9.79364ZM13.0966 7.336L12.369 6.10718L13.8823 5.21887L14.6099 6.44769L13.0966 7.336ZM11.6924 4.87836L10.9648 3.64953L12.4782 2.76123L13.2057 3.99005L11.6924 4.87836Z" fill="#3CB4E5"/>
<path id="Vector_11" d="M11.1743 17.692L9.95933 16.9517L10.8324 15.412L12.0401 16.1522L11.1743 17.692ZM8.72976 16.2855L7.52202 15.5452L8.41692 14.0647L9.62466 14.805L8.72976 16.2855ZM6.33611 14.8494L5.12837 14.1091L6.00144 12.5842L7.20918 13.3245L6.33611 14.8494ZM3.92063 13.4355L2.71289 12.6952L3.58596 11.1555L4.7937 11.8958L3.92063 13.4355Z" fill="#3CB4E5"/>
<path id="Vector_12" d="M9.77105 24.7986H8.37415V23.022H9.77105V24.7986ZM6.97724 24.7986H5.58034V23.022H6.97724V24.7986ZM4.18344 24.7986H2.79381V23.022H4.18344V24.7986ZM1.3969 24.7986H0V23.022H1.3969V24.7986Z" fill="#3CB4E5"/>
<path id="Vector_13" d="M3.58596 36.6351L2.71289 35.0953L3.92063 34.3551L4.7937 35.8948L3.58596 36.6351ZM6.00144 35.2138L5.12837 33.6741L6.33611 32.9338L7.20918 34.4735L6.00144 35.2138ZM8.41692 33.7925L7.54385 32.2602L8.75159 31.5199L9.62466 33.0522L8.41692 33.7925ZM10.8324 32.3712L9.95933 30.8389L11.1671 30.0986L12.0401 31.631L10.8324 32.3712Z" fill="#3CB4E5"/>
<path id="Vector_14" d="M31.1246 12.2513L29.6113 11.3704L30.3389 10.1342L31.8522 11.0225L31.1246 12.2513ZM32.5215 9.79364L31.0082 8.88313L31.7358 7.6543L33.2418 8.54261L32.5215 9.79364ZM33.9112 7.336L32.4051 6.44769L33.1327 5.21887L34.6387 6.10718L33.9112 7.336ZM35.3081 4.87836L33.802 3.99005L34.5296 2.76123L36.0356 3.64953L35.3081 4.87836Z" fill="#3CB4E5"/>
<path id="Vector_15" d="M35.832 17.692L34.959 16.1596L36.1667 15.4194L37.0398 16.9517L35.832 17.692ZM38.2475 16.2855L37.3745 14.7531L38.5604 14.0647L39.4553 15.5452L38.2475 16.2855ZM40.663 14.8716L39.7899 13.3245L40.9977 12.5842L41.8707 14.1239L40.663 14.8716ZM43.0785 13.4503L42.1981 11.8958L43.4132 11.1555L44.279 12.6952L43.0785 13.4503Z" fill="#3CB4E5"/>
<path id="Vector_16" d="M47.0001 24.7986H45.6032V23.022H47.0001V24.7986ZM44.2136 24.7986H42.8167V23.022H44.2136V24.7986ZM41.4198 24.7986H40.0156V23.022H41.4125L41.4198 24.7986ZM38.626 24.7986H37.2363V23.022H38.626V24.7986Z" fill="#3CB4E5"/>
<path id="Vector_17" d="M43.4135 36.6351L42.2058 35.8948L43.0788 34.3625L44.2866 35.1027L43.4135 36.6351ZM40.998 35.2138L39.7903 34.4735L40.6634 32.9412L41.8711 33.6815L40.998 35.2138ZM38.5607 33.7925L37.353 33.0893L38.226 31.5495L39.4338 32.2898L38.5607 33.7925ZM36.1452 32.3786L34.9375 31.6384L35.8106 30.0986L37.0183 30.8389L36.1452 32.3786Z" fill="#3CB4E5"/>
</g>
<defs>
<clipPath id="clip0_4197_3339">
<rect width="47" height="45" fill="white"/>
</clipPath>
</defs>
</svg>
