<svg width="24" height="24" viewBox="0 0 50 60" fill="none" xmlns="http://www.w3.org/2000/svg"><path d="M30.1987 16.6513C32.4412 17.7289 34.311 19.4511 35.569 21.5975C36.8271 23.7439 37.416 26.2168 37.2602 28.6998M32.7237 6.97536C37.4902 8.8017 41.494 12.1944 44.078 16.5966C46.6616 20.9987 47.672 26.1486 46.9425 31.2006M31.4944 55.7453C10.7868 50.3415 -1.61935 29.174 3.78444 8.46647C4.02824 7.53221 4.30414 6.61485 4.61062 5.71526C4.96235 4.68284 5.13821 4.16665 5.53904 3.75956C5.87103 3.42242 6.37406 3.15179 6.83835 3.06054C7.3989 2.95039 7.97963 3.10193 9.14106 3.40502L15.9561 5.18345C16.9328 5.43833 17.4211 5.56577 17.7978 5.83575C18.1306 6.07425 18.3997 6.3908 18.5814 6.75762C18.7872 7.17286 18.8344 7.67536 18.9286 8.68036L19.7251 17.1738C19.8347 18.343 19.8896 18.9277 19.7245 19.4257C19.5789 19.8649 19.3141 20.2549 18.9599 20.5526C18.5583 20.8902 17.9948 21.0554 16.8678 21.3857L13.0387 22.5082C14.274 29.6746 18.1127 36.2339 23.7652 40.8097L26.6156 38.0174C27.4546 37.1954 27.8739 36.7845 28.3646 36.5991C28.7974 36.4356 29.2671 36.3951 29.7215 36.4827C30.2366 36.582 30.72 36.9156 31.6867 37.5826L38.7078 42.4276C39.5385 43.001 39.954 43.2877 40.2157 43.6701C40.4469 44.008 40.5918 44.3974 40.637 44.8043C40.6886 45.2647 40.5612 45.7531 40.3063 46.7299L38.5279 53.5449C38.2248 54.7063 38.0732 55.2871 37.7031 55.7222C37.3966 56.0828 36.9148 56.3896 36.4585 56.5144C35.9073 56.6651 35.3712 56.5663 34.2985 56.3688C33.3637 56.1967 32.4286 55.9891 31.4944 55.7453Z" stroke="#3CB4E5" stroke-width="5" stroke-linecap="round" stroke-linejoin="round"></path></svg>